<mxfile host="app.diagrams.net" modified="2023-04-13T20:47:08.325Z" agent="Mozilla/5.0 (Windows NT 10.0; Win64; x64) AppleWebKit/537.36 (KHTML, like Gecko) Chrome/111.0.0.0 Safari/537.36" etag="TwVhb7jh4EZ9nQFUnrbW" version="21.1.4" type="device">
  <diagram id="kR90zeCA4_0mLlq6k_XF" name="Page-1">
    <mxGraphModel dx="1994" dy="1770" grid="1" gridSize="10" guides="1" tooltips="1" connect="1" arrows="1" fold="1" page="1" pageScale="1" pageWidth="827" pageHeight="1169" math="0" shadow="0">
      <root>
        <mxCell id="0" />
        <mxCell id="1" parent="0" />
        <mxCell id="CaFN4GY2fkNQJT5vzBtZ-1" value="" style="rounded=0;whiteSpace=wrap;html=1;" parent="1" vertex="1">
          <mxGeometry x="227.5" y="-230" width="350" height="690" as="geometry" />
        </mxCell>
        <mxCell id="PXlCIe3qFZ60w150r0KB-8" value="Actor" style="shape=umlActor;verticalLabelPosition=bottom;verticalAlign=top;html=1;outlineConnect=0;fillColor=#dae8fc;strokeColor=#6c8ebf;" parent="1" vertex="1">
          <mxGeometry x="-40" y="40" width="80" height="130" as="geometry" />
        </mxCell>
        <mxCell id="PXlCIe3qFZ60w150r0KB-10" value="" style="endArrow=none;html=1;rounded=0;exitX=0.036;exitY=0.676;exitDx=0;exitDy=0;exitPerimeter=0;" parent="1" target="PXlCIe3qFZ60w150r0KB-8" edge="1">
          <mxGeometry width="50" height="50" relative="1" as="geometry">
            <mxPoint x="322.74" y="133.79999999999995" as="sourcePoint" />
            <mxPoint x="440" y="300" as="targetPoint" />
          </mxGeometry>
        </mxCell>
        <mxCell id="PXlCIe3qFZ60w150r0KB-11" value="" style="endArrow=none;html=1;rounded=0;exitX=0;exitY=0.5;exitDx=0;exitDy=0;" parent="1" target="PXlCIe3qFZ60w150r0KB-8" edge="1">
          <mxGeometry width="50" height="50" relative="1" as="geometry">
            <mxPoint x="295" y="225" as="sourcePoint" />
            <mxPoint x="120" y="315.57660909169033" as="targetPoint" />
          </mxGeometry>
        </mxCell>
        <mxCell id="PXlCIe3qFZ60w150r0KB-12" value="" style="endArrow=none;html=1;rounded=0;exitX=0;exitY=0.5;exitDx=0;exitDy=0;" parent="1" target="PXlCIe3qFZ60w150r0KB-8" edge="1">
          <mxGeometry width="50" height="50" relative="1" as="geometry">
            <mxPoint x="295" y="295" as="sourcePoint" />
            <mxPoint x="130" y="325.57660909169033" as="targetPoint" />
          </mxGeometry>
        </mxCell>
        <mxCell id="PXlCIe3qFZ60w150r0KB-13" value="Consultar saldo conta" style="ellipse;whiteSpace=wrap;html=1;" parent="1" vertex="1">
          <mxGeometry x="315" y="110" width="215" height="50" as="geometry" />
        </mxCell>
        <mxCell id="PXlCIe3qFZ60w150r0KB-16" value="" style="endArrow=none;html=1;rounded=0;exitX=0;exitY=0.5;exitDx=0;exitDy=0;" parent="1" source="A59N15fdTL_zLc8oEb05-2" target="PXlCIe3qFZ60w150r0KB-8" edge="1">
          <mxGeometry width="50" height="50" relative="1" as="geometry">
            <mxPoint x="215" y="279.42" as="sourcePoint" />
            <mxPoint x="60" y="249.99660909169035" as="targetPoint" />
          </mxGeometry>
        </mxCell>
        <mxCell id="PXlCIe3qFZ60w150r0KB-17" value="" style="endArrow=none;html=1;rounded=0;exitX=0;exitY=0.5;exitDx=0;exitDy=0;" parent="1" source="A59N15fdTL_zLc8oEb05-1" target="PXlCIe3qFZ60w150r0KB-8" edge="1">
          <mxGeometry width="50" height="50" relative="1" as="geometry">
            <mxPoint x="194.3800000000001" y="326.61999999999983" as="sourcePoint" />
            <mxPoint x="40" y="229.99660909169035" as="targetPoint" />
          </mxGeometry>
        </mxCell>
        <mxCell id="PXlCIe3qFZ60w150r0KB-18" value="" style="endArrow=none;html=1;rounded=0;exitX=0.012;exitY=0.696;exitDx=0;exitDy=0;exitPerimeter=0;" parent="1" source="A59N15fdTL_zLc8oEb05-3" target="PXlCIe3qFZ60w150r0KB-8" edge="1">
          <mxGeometry width="50" height="50" relative="1" as="geometry">
            <mxPoint x="254.3800000000001" y="392.1999999999998" as="sourcePoint" />
            <mxPoint x="70" y="250" as="targetPoint" />
          </mxGeometry>
        </mxCell>
        <mxCell id="PXlCIe3qFZ60w150r0KB-21" value="User" style="text;html=1;align=center;verticalAlign=middle;resizable=0;points=[];autosize=1;strokeColor=none;fillColor=none;labelBackgroundColor=#FFFFFF;spacing=8;spacingLeft=1;fontSize=14;" parent="1" vertex="1">
          <mxGeometry x="-30" y="160" width="60" height="40" as="geometry" />
        </mxCell>
        <mxCell id="PXlCIe3qFZ60w150r0KB-26" value="Consultar somatorio dos gastos" style="ellipse;whiteSpace=wrap;html=1;" parent="1" vertex="1">
          <mxGeometry x="295" y="180" width="232.5" height="70" as="geometry" />
        </mxCell>
        <mxCell id="PXlCIe3qFZ60w150r0KB-34" value="Registo de Movimento" style="ellipse;whiteSpace=wrap;html=1;" parent="1" vertex="1">
          <mxGeometry x="306" y="-20" width="215" height="50" as="geometry" />
        </mxCell>
        <mxCell id="PXlCIe3qFZ60w150r0KB-35" value="Consultar lista de movimentos" style="ellipse;whiteSpace=wrap;html=1;" parent="1" vertex="1">
          <mxGeometry x="312.5" y="40" width="215" height="50" as="geometry" />
        </mxCell>
        <mxCell id="PXlCIe3qFZ60w150r0KB-36" value="" style="endArrow=none;html=1;rounded=0;fontSize=14;entryX=0;entryY=0.5;entryDx=0;entryDy=0;" parent="1" source="PXlCIe3qFZ60w150r0KB-8" target="PXlCIe3qFZ60w150r0KB-35" edge="1">
          <mxGeometry width="50" height="50" relative="1" as="geometry">
            <mxPoint x="100" y="270" as="sourcePoint" />
            <mxPoint x="440" y="200" as="targetPoint" />
          </mxGeometry>
        </mxCell>
        <mxCell id="PXlCIe3qFZ60w150r0KB-38" value="" style="endArrow=none;html=1;rounded=0;fontSize=14;exitX=0;exitY=0.5;exitDx=0;exitDy=0;" parent="1" source="PXlCIe3qFZ60w150r0KB-34" target="PXlCIe3qFZ60w150r0KB-8" edge="1">
          <mxGeometry width="50" height="50" relative="1" as="geometry">
            <mxPoint x="390" y="250" as="sourcePoint" />
            <mxPoint x="80" y="260" as="targetPoint" />
          </mxGeometry>
        </mxCell>
        <mxCell id="A59N15fdTL_zLc8oEb05-1" value="Editar utilizador" style="ellipse;whiteSpace=wrap;html=1;" parent="1" vertex="1">
          <mxGeometry x="295" y="-210" width="215" height="50" as="geometry" />
        </mxCell>
        <mxCell id="A59N15fdTL_zLc8oEb05-2" value="Adicionar Conta" style="ellipse;whiteSpace=wrap;html=1;" parent="1" vertex="1">
          <mxGeometry x="295" y="-140" width="215" height="50" as="geometry" />
        </mxCell>
        <mxCell id="A59N15fdTL_zLc8oEb05-3" value="Apagar conta" style="ellipse;whiteSpace=wrap;html=1;" parent="1" vertex="1">
          <mxGeometry x="295" y="-80" width="215" height="50" as="geometry" />
        </mxCell>
        <mxCell id="A59N15fdTL_zLc8oEb05-4" value="Consultar somatorios dos recebimentos" style="ellipse;whiteSpace=wrap;html=1;" parent="1" vertex="1">
          <mxGeometry x="295" y="260" width="232.5" height="70" as="geometry" />
        </mxCell>
        <mxCell id="A59N15fdTL_zLc8oEb05-23" value="Conta" style="rounded=0;whiteSpace=wrap;html=1;" parent="1" vertex="1">
          <mxGeometry x="93.75" y="1090" width="120" height="60" as="geometry" />
        </mxCell>
        <mxCell id="A59N15fdTL_zLc8oEb05-24" value="Movimento" style="rounded=0;whiteSpace=wrap;html=1;" parent="1" vertex="1">
          <mxGeometry x="430" y="1090" width="120" height="60" as="geometry" />
        </mxCell>
        <mxCell id="A59N15fdTL_zLc8oEb05-26" value="" style="endArrow=classic;startArrow=classic;html=1;rounded=0;exitX=1;exitY=0.5;exitDx=0;exitDy=0;" parent="1" source="A59N15fdTL_zLc8oEb05-23" edge="1">
          <mxGeometry width="50" height="50" relative="1" as="geometry">
            <mxPoint x="490" y="1150" as="sourcePoint" />
            <mxPoint x="420" y="1120" as="targetPoint" />
          </mxGeometry>
        </mxCell>
        <mxCell id="A59N15fdTL_zLc8oEb05-27" value="1" style="text;html=1;align=center;verticalAlign=middle;resizable=0;points=[];autosize=1;strokeColor=none;fillColor=none;" parent="1" vertex="1">
          <mxGeometry x="215" y="1085" width="30" height="30" as="geometry" />
        </mxCell>
        <mxCell id="A59N15fdTL_zLc8oEb05-28" value="N" style="text;html=1;align=center;verticalAlign=middle;resizable=0;points=[];autosize=1;strokeColor=none;fillColor=none;" parent="1" vertex="1">
          <mxGeometry x="385" y="1085" width="30" height="30" as="geometry" />
        </mxCell>
        <mxCell id="MsKCTjs8EX-7MRmS8cZD-1" value="Apagar movimento" style="ellipse;whiteSpace=wrap;html=1;" parent="1" vertex="1">
          <mxGeometry x="295" y="360" width="232.5" height="70" as="geometry" />
        </mxCell>
        <mxCell id="MsKCTjs8EX-7MRmS8cZD-2" value="" style="endArrow=none;html=1;rounded=0;entryX=1.067;entryY=0.175;entryDx=0;entryDy=0;entryPerimeter=0;" parent="1" source="MsKCTjs8EX-7MRmS8cZD-1" target="PXlCIe3qFZ60w150r0KB-21" edge="1">
          <mxGeometry width="50" height="50" relative="1" as="geometry">
            <mxPoint x="295" y="360" as="sourcePoint" />
            <mxPoint x="40" y="196" as="targetPoint" />
          </mxGeometry>
        </mxCell>
        <mxCell id="MsKCTjs8EX-7MRmS8cZD-5" value="" style="group" parent="1" vertex="1" connectable="0">
          <mxGeometry x="1680" y="480" width="370" height="380" as="geometry" />
        </mxCell>
        <mxCell id="A59N15fdTL_zLc8oEb05-5" value="" style="whiteSpace=wrap;html=1;aspect=fixed;" parent="MsKCTjs8EX-7MRmS8cZD-5" vertex="1">
          <mxGeometry x="23.44" y="19.73" width="209.27" height="209.27" as="geometry" />
        </mxCell>
        <mxCell id="A59N15fdTL_zLc8oEb05-8" value="Editar Utilizador" style="ellipse;whiteSpace=wrap;html=1;" parent="MsKCTjs8EX-7MRmS8cZD-5" vertex="1">
          <mxGeometry x="45.36057692307693" y="100.18181818181819" width="165.43269230769232" height="48.36363636363637" as="geometry" />
        </mxCell>
        <mxCell id="MsKCTjs8EX-7MRmS8cZD-7" value="" style="group" parent="1" vertex="1" connectable="0">
          <mxGeometry x="1330" y="470" width="270" height="300" as="geometry" />
        </mxCell>
        <mxCell id="A59N15fdTL_zLc8oEb05-11" value="Movimentos" style="text;html=1;align=center;verticalAlign=middle;resizable=0;points=[];autosize=1;strokeColor=none;fillColor=none;" parent="MsKCTjs8EX-7MRmS8cZD-7" vertex="1">
          <mxGeometry x="10" width="90" height="30" as="geometry" />
        </mxCell>
        <mxCell id="A59N15fdTL_zLc8oEb05-15" value="Criar registo Movimento" style="ellipse;whiteSpace=wrap;html=1;" parent="MsKCTjs8EX-7MRmS8cZD-7" vertex="1">
          <mxGeometry x="27.5" y="120" width="215" height="50" as="geometry" />
        </mxCell>
        <mxCell id="A59N15fdTL_zLc8oEb05-22" value="Tipo de registo" style="ellipse;whiteSpace=wrap;html=1;" parent="MsKCTjs8EX-7MRmS8cZD-7" vertex="1">
          <mxGeometry x="20" y="50" width="215" height="50" as="geometry" />
        </mxCell>
        <mxCell id="MsKCTjs8EX-7MRmS8cZD-19" value="" style="group" parent="MsKCTjs8EX-7MRmS8cZD-7" vertex="1" connectable="0">
          <mxGeometry y="30" width="270" height="270" as="geometry" />
        </mxCell>
        <mxCell id="A59N15fdTL_zLc8oEb05-12" value="" style="whiteSpace=wrap;html=1;aspect=fixed;" parent="MsKCTjs8EX-7MRmS8cZD-19" vertex="1">
          <mxGeometry width="270" height="270" as="geometry" />
        </mxCell>
        <mxCell id="MsKCTjs8EX-7MRmS8cZD-18" value="Apagar movimento" style="ellipse;whiteSpace=wrap;html=1;" parent="MsKCTjs8EX-7MRmS8cZD-19" vertex="1">
          <mxGeometry x="18.75" y="170" width="232.5" height="70" as="geometry" />
        </mxCell>
        <mxCell id="MsKCTjs8EX-7MRmS8cZD-23" value="Adicionar movimento" style="ellipse;whiteSpace=wrap;html=1;" parent="MsKCTjs8EX-7MRmS8cZD-19" vertex="1">
          <mxGeometry x="20" y="35" width="215" height="50" as="geometry" />
        </mxCell>
        <mxCell id="MsKCTjs8EX-7MRmS8cZD-8" value="" style="group" parent="1" vertex="1" connectable="0">
          <mxGeometry x="840" y="450" width="417.78" height="502.22" as="geometry" />
        </mxCell>
        <mxCell id="MsKCTjs8EX-7MRmS8cZD-3" value="" style="whiteSpace=wrap;html=1;aspect=fixed;" parent="MsKCTjs8EX-7MRmS8cZD-8" vertex="1">
          <mxGeometry x="-60" y="52.22" width="450" height="450" as="geometry" />
        </mxCell>
        <mxCell id="A59N15fdTL_zLc8oEb05-16" value="Consultar lista de movimentos" style="ellipse;whiteSpace=wrap;html=1;" parent="MsKCTjs8EX-7MRmS8cZD-8" vertex="1">
          <mxGeometry x="151.53" y="390.00111111111113" width="215" height="65.27777777777779" as="geometry" />
        </mxCell>
        <mxCell id="A59N15fdTL_zLc8oEb05-17" value="Consultar somatorio dos gastos" style="ellipse;whiteSpace=wrap;html=1;" parent="MsKCTjs8EX-7MRmS8cZD-8" vertex="1">
          <mxGeometry x="142.78" y="269.99666666666667" width="232.5" height="91.38888888888889" as="geometry" />
        </mxCell>
        <mxCell id="A59N15fdTL_zLc8oEb05-18" value="Consultar saldo conta" style="ellipse;whiteSpace=wrap;html=1;" parent="MsKCTjs8EX-7MRmS8cZD-8" vertex="1">
          <mxGeometry x="150" y="77.35888888888888" width="215" height="65.27777777777779" as="geometry" />
        </mxCell>
        <mxCell id="A59N15fdTL_zLc8oEb05-19" value="Consultar somatorios dos recebimentos" style="ellipse;whiteSpace=wrap;html=1;" parent="MsKCTjs8EX-7MRmS8cZD-8" vertex="1">
          <mxGeometry x="142.78" y="158.80222222222224" width="232.5" height="91.38888888888889" as="geometry" />
        </mxCell>
        <mxCell id="MsKCTjs8EX-7MRmS8cZD-4" value="Conta" style="text;html=1;align=center;verticalAlign=middle;resizable=0;points=[];autosize=1;strokeColor=none;fillColor=none;" parent="MsKCTjs8EX-7MRmS8cZD-8" vertex="1">
          <mxGeometry x="35" width="60" height="30" as="geometry" />
        </mxCell>
        <mxCell id="hSWYnMdbVUoiAtDbje1Y-8" value="Criar conta" style="ellipse;whiteSpace=wrap;html=1;" vertex="1" parent="MsKCTjs8EX-7MRmS8cZD-8">
          <mxGeometry x="-60" y="80" width="193" height="60" as="geometry" />
        </mxCell>
        <mxCell id="hSWYnMdbVUoiAtDbje1Y-9" value="Apagar Conta" style="ellipse;whiteSpace=wrap;html=1;" vertex="1" parent="MsKCTjs8EX-7MRmS8cZD-8">
          <mxGeometry x="-58.97000000000003" y="174.5" width="193" height="60" as="geometry" />
        </mxCell>
        <mxCell id="MsKCTjs8EX-7MRmS8cZD-9" value="utilizador" style="rounded=0;whiteSpace=wrap;html=1;" parent="1" vertex="1">
          <mxGeometry x="1090" y="-330" width="120" height="60" as="geometry" />
        </mxCell>
        <mxCell id="MsKCTjs8EX-7MRmS8cZD-10" value="&lt;font style=&quot;font-size: 30px;&quot;&gt;Modelo de Casos de Uso&lt;/font&gt;" style="text;html=1;align=center;verticalAlign=middle;resizable=0;points=[];autosize=1;strokeColor=none;fillColor=none;" parent="1" vertex="1">
          <mxGeometry x="213.75" y="-390" width="360" height="50" as="geometry" />
        </mxCell>
        <mxCell id="MsKCTjs8EX-7MRmS8cZD-11" value="&lt;font style=&quot;font-size: 30px;&quot;&gt;Modelo do Domínio&lt;/font&gt;" style="text;html=1;align=center;verticalAlign=middle;resizable=0;points=[];autosize=1;strokeColor=none;fillColor=none;" parent="1" vertex="1">
          <mxGeometry x="1570" y="-584" width="280" height="50" as="geometry" />
        </mxCell>
        <mxCell id="MsKCTjs8EX-7MRmS8cZD-12" value="Conta" style="rounded=0;whiteSpace=wrap;html=1;" parent="1" vertex="1">
          <mxGeometry x="1390" y="-330" width="120" height="60" as="geometry" />
        </mxCell>
        <mxCell id="MsKCTjs8EX-7MRmS8cZD-13" value="Movimentos" style="rounded=0;whiteSpace=wrap;html=1;" parent="1" vertex="1">
          <mxGeometry x="1390" y="-120" width="120" height="60" as="geometry" />
        </mxCell>
        <mxCell id="MsKCTjs8EX-7MRmS8cZD-16" value="" style="endArrow=diamondThin;endFill=0;endSize=24;html=1;rounded=0;exitX=0;exitY=0.5;exitDx=0;exitDy=0;" parent="1" source="MsKCTjs8EX-7MRmS8cZD-12" edge="1">
          <mxGeometry width="160" relative="1" as="geometry">
            <mxPoint x="1380" y="-300.5" as="sourcePoint" />
            <mxPoint x="1210" y="-300.5" as="targetPoint" />
          </mxGeometry>
        </mxCell>
        <mxCell id="MsKCTjs8EX-7MRmS8cZD-17" value="" style="endArrow=diamondThin;endFill=0;endSize=24;html=1;rounded=0;entryX=0.5;entryY=1;entryDx=0;entryDy=0;" parent="1" target="MsKCTjs8EX-7MRmS8cZD-12" edge="1">
          <mxGeometry width="160" relative="1" as="geometry">
            <mxPoint x="1450" y="-120" as="sourcePoint" />
            <mxPoint x="1220" y="-290.5" as="targetPoint" />
          </mxGeometry>
        </mxCell>
        <mxCell id="MsKCTjs8EX-7MRmS8cZD-20" value="&lt;font style=&quot;font-size: 30px;&quot;&gt;Levantamento de requisitos&lt;/font&gt;" style="text;html=1;align=center;verticalAlign=middle;resizable=0;points=[];autosize=1;strokeColor=none;fillColor=none;" parent="1" vertex="1">
          <mxGeometry x="1290" y="290" width="390" height="50" as="geometry" />
        </mxCell>
        <mxCell id="A59N15fdTL_zLc8oEb05-6" value="utilizador" style="text;html=1;align=center;verticalAlign=middle;resizable=0;points=[];autosize=1;strokeColor=none;fillColor=none;" parent="1" vertex="1">
          <mxGeometry x="1740.0030769230768" y="460" width="70" height="30" as="geometry" />
        </mxCell>
        <mxCell id="hSWYnMdbVUoiAtDbje1Y-10" value="Débito" style="rounded=0;whiteSpace=wrap;html=1;" vertex="1" parent="1">
          <mxGeometry x="1654" y="-200" width="120" height="60" as="geometry" />
        </mxCell>
        <mxCell id="hSWYnMdbVUoiAtDbje1Y-11" value="Crédtio" style="rounded=0;whiteSpace=wrap;html=1;" vertex="1" parent="1">
          <mxGeometry x="1654" y="-70" width="120" height="60" as="geometry" />
        </mxCell>
        <mxCell id="hSWYnMdbVUoiAtDbje1Y-12" value="Conta à ordem" style="rounded=0;whiteSpace=wrap;html=1;" vertex="1" parent="1">
          <mxGeometry x="1654" y="-460" width="120" height="60" as="geometry" />
        </mxCell>
        <mxCell id="hSWYnMdbVUoiAtDbje1Y-13" value="Conta Prazo" style="rounded=0;whiteSpace=wrap;html=1;" vertex="1" parent="1">
          <mxGeometry x="1654" y="-370" width="120" height="60" as="geometry" />
        </mxCell>
        <mxCell id="hSWYnMdbVUoiAtDbje1Y-15" value="Extends" style="endArrow=block;endSize=16;endFill=0;html=1;rounded=0;entryX=1;entryY=0.25;entryDx=0;entryDy=0;exitX=0;exitY=0.25;exitDx=0;exitDy=0;" edge="1" parent="1" source="hSWYnMdbVUoiAtDbje1Y-12" target="MsKCTjs8EX-7MRmS8cZD-12">
          <mxGeometry width="160" relative="1" as="geometry">
            <mxPoint x="1630" y="-530" as="sourcePoint" />
            <mxPoint x="1420" y="-290" as="targetPoint" />
          </mxGeometry>
        </mxCell>
        <mxCell id="hSWYnMdbVUoiAtDbje1Y-16" value="Extends" style="endArrow=block;endSize=16;endFill=0;html=1;rounded=0;entryX=1;entryY=0.75;entryDx=0;entryDy=0;exitX=0;exitY=0.5;exitDx=0;exitDy=0;" edge="1" parent="1" source="hSWYnMdbVUoiAtDbje1Y-13" target="MsKCTjs8EX-7MRmS8cZD-12">
          <mxGeometry width="160" relative="1" as="geometry">
            <mxPoint x="1840" y="-340" as="sourcePoint" />
            <mxPoint x="1650" y="-350" as="targetPoint" />
          </mxGeometry>
        </mxCell>
        <mxCell id="hSWYnMdbVUoiAtDbje1Y-17" value="Extends" style="endArrow=block;endSize=16;endFill=0;html=1;rounded=0;entryX=1;entryY=0.25;entryDx=0;entryDy=0;" edge="1" parent="1" target="MsKCTjs8EX-7MRmS8cZD-13">
          <mxGeometry width="160" relative="1" as="geometry">
            <mxPoint x="1650" y="-170" as="sourcePoint" />
            <mxPoint x="1520" y="-275" as="targetPoint" />
          </mxGeometry>
        </mxCell>
        <mxCell id="hSWYnMdbVUoiAtDbje1Y-18" value="Extends" style="endArrow=block;endSize=16;endFill=0;html=1;rounded=0;entryX=1;entryY=0.5;entryDx=0;entryDy=0;" edge="1" parent="1" target="MsKCTjs8EX-7MRmS8cZD-13">
          <mxGeometry width="160" relative="1" as="geometry">
            <mxPoint x="1650" y="-50" as="sourcePoint" />
            <mxPoint x="1520" y="-95" as="targetPoint" />
          </mxGeometry>
        </mxCell>
        <mxCell id="hSWYnMdbVUoiAtDbje1Y-19" value="" style="endArrow=block;dashed=1;endFill=0;endSize=12;html=1;rounded=0;entryX=1;entryY=0.5;entryDx=0;entryDy=0;exitX=0;exitY=0.5;exitDx=0;exitDy=0;" edge="1" parent="1" source="hSWYnMdbVUoiAtDbje1Y-20" target="hSWYnMdbVUoiAtDbje1Y-10">
          <mxGeometry width="160" relative="1" as="geometry">
            <mxPoint x="1439" y="50" as="sourcePoint" />
            <mxPoint x="1420" y="-70" as="targetPoint" />
          </mxGeometry>
        </mxCell>
        <mxCell id="hSWYnMdbVUoiAtDbje1Y-20" value="Data" style="rounded=0;whiteSpace=wrap;html=1;" vertex="1" parent="1">
          <mxGeometry x="1960" y="-160" width="120" height="60" as="geometry" />
        </mxCell>
        <mxCell id="hSWYnMdbVUoiAtDbje1Y-21" value="" style="endArrow=block;dashed=1;endFill=0;endSize=12;html=1;rounded=0;exitX=0;exitY=0.5;exitDx=0;exitDy=0;" edge="1" parent="1">
          <mxGeometry width="160" relative="1" as="geometry">
            <mxPoint x="1970" y="-120" as="sourcePoint" />
            <mxPoint x="1780" y="-40" as="targetPoint" />
          </mxGeometry>
        </mxCell>
      </root>
    </mxGraphModel>
  </diagram>
</mxfile>
